<svg xmlns="http://www.w3.org/2000/svg" width="100" height="24" viewBox="0 0 100 24" fill="none"><path d="M21.984 8.56799C22.272 8.56799 22.368 8.67199 22.368 8.95199V15.288H25.624C25.904 15.288 26.008 15.392 26.008 15.672V16.232C26.008 16.512 25.904 16.616 25.624 16.616H21.336C21.056 16.616 20.944 16.512 20.944 16.232V8.95199C20.944 8.67199 21.056 8.56799 21.336 8.56799H21.984Z" fill="#B69D78"></path><path d="M28.848 11.36C28.848 9.51203 30.016 8.40002 32.048 8.40002C34.08 8.40002 35.248 9.51203 35.248 11.36V13.824C35.248 15.672 34.072 16.784 32.048 16.784C30.024 16.784 28.848 15.672 28.848 13.824V11.36ZM33.904 11.36C33.904 10.32 33.256 9.76002 32.088 9.76002C30.92 9.76002 30.28 10.328 30.28 11.36V13.84C30.28 14.888 30.92 15.44 32.088 15.44C33.256 15.44 33.904 14.864 33.904 13.84V11.36Z" fill="#B69D78"></path><path d="M44.776 12.208C45.088 12.208 45.16 12.312 45.16 12.592V14.112C45.1685 14.4701 45.0967 14.8255 44.95 15.1522C44.8032 15.4788 44.5853 15.7686 44.312 16C43.6334 16.5404 42.7777 16.8086 41.912 16.752C39.84 16.752 38.712 15.64 38.712 13.792V11.312C38.712 9.48804 39.88 8.36804 41.912 8.36804C43.512 8.36804 44.552 9.00004 44.992 10.264C45.0166 10.3115 45.0298 10.3641 45.0305 10.4176C45.0313 10.4711 45.0195 10.524 44.9962 10.5722C44.9729 10.6203 44.9387 10.6624 44.8963 10.695C44.8539 10.7276 44.8045 10.7499 44.752 10.76L44.128 10.976C43.856 11.072 43.744 11.016 43.648 10.736C43.5155 10.3943 43.2728 10.1066 42.9584 9.9182C42.644 9.72985 42.2758 9.65167 41.912 9.69604C40.736 9.69604 40.096 10.264 40.096 11.296V13.84C40.096 14.888 40.744 15.44 41.912 15.44C43.08 15.44 43.8 14.904 43.8 14.12V13.528H42.064C41.776 13.528 41.672 13.416 41.672 13.136V12.592C41.672 12.312 41.776 12.208 42.064 12.208H44.776Z" fill="#B69D78"></path><path d="M48.464 11.36C48.464 9.51203 49.632 8.40002 51.664 8.40002C53.696 8.40002 54.864 9.51203 54.864 11.36V13.824C54.864 15.672 53.688 16.784 51.664 16.784C49.64 16.784 48.464 15.672 48.464 13.824V11.36ZM53.512 11.36C53.512 10.32 52.864 9.76002 51.704 9.76002C50.544 9.76002 49.888 10.328 49.888 11.36V13.84C49.888 14.888 50.536 15.44 51.704 15.44C52.872 15.44 53.512 14.864 53.512 13.84V11.36Z" fill="#B69D78"></path><path d="M58.632 8.79999C58.632 8.62399 58.688 8.56799 58.864 8.56799H59.232C59.408 8.56799 59.448 8.62399 59.448 8.79999V16.384C59.448 16.56 59.448 16.616 59.232 16.616H58.864C58.688 16.616 58.632 16.56 58.632 16.384V8.79999Z" fill="#B69D78"></path><path d="M66.736 8.56799C67.4022 8.56799 68.0411 8.83265 68.5122 9.30374C68.9833 9.77483 69.248 10.4138 69.248 11.08C69.248 11.7462 68.9833 12.3852 68.5122 12.8562C68.0411 13.3273 67.4022 13.592 66.736 13.592H64.336V16.384C64.336 16.56 64.296 16.616 64.128 16.616H63.752C63.584 16.616 63.52 16.56 63.52 16.384V8.79999C63.52 8.62399 63.584 8.56799 63.752 8.56799H66.736ZM66.664 12.8C66.893 12.8 67.1198 12.7549 67.3314 12.6672C67.543 12.5796 67.7352 12.4511 67.8972 12.2892C68.0591 12.1272 68.1876 11.935 68.2752 11.7234C68.3629 11.5118 68.408 11.285 68.408 11.056C68.408 10.827 68.3629 10.6002 68.2752 10.3886C68.1876 10.177 68.0591 9.98474 67.8972 9.8228C67.7352 9.66085 67.543 9.53239 67.3314 9.44475C67.1198 9.3571 66.893 9.31199 66.664 9.31199H64.264V12.8H66.664Z" fill="#B69D78"></path><path d="M75.496 8.40806C76.1137 8.33989 76.7368 8.47277 77.273 8.78696C77.8091 9.10114 78.2296 9.57988 78.472 10.1521C78.536 10.2801 78.472 10.3841 78.344 10.4481L77.992 10.6081C77.848 10.6641 77.792 10.6561 77.704 10.5041C77.5228 10.0794 77.2111 9.72341 76.8142 9.48755C76.4173 9.2517 75.9556 9.14821 75.496 9.19206C74.144 9.19206 73.408 9.72806 73.408 10.6881C73.4002 10.9815 73.4987 11.2678 73.6854 11.4942C73.8722 11.7206 74.1345 11.8719 74.424 11.9201C74.8543 12.0604 75.3004 12.1464 75.752 12.1761C76.2987 12.2052 76.838 12.3158 77.352 12.5041C77.7461 12.6288 78.0853 12.8853 78.3125 13.2305C78.5398 13.5758 78.6413 13.9888 78.6 14.4001C78.6 15.8961 77.512 16.8001 75.512 16.8001C74.856 16.8751 74.1941 16.7231 73.6366 16.3694C73.079 16.0156 72.6596 15.4815 72.448 14.8561C72.4339 14.8275 72.4263 14.7963 72.4256 14.7645C72.425 14.7326 72.4314 14.7011 72.4444 14.672C72.4574 14.643 72.4767 14.6172 72.5008 14.5964C72.5249 14.5757 72.5533 14.5605 72.584 14.5521L72.936 14.4241C72.9637 14.4127 72.9935 14.4073 73.0235 14.4081C73.0534 14.4089 73.0828 14.4159 73.1099 14.4287C73.137 14.4415 73.1611 14.4598 73.1808 14.4824C73.2004 14.505 73.2151 14.5315 73.224 14.5601C73.403 15.012 73.7212 15.3952 74.1326 15.6541C74.544 15.913 75.0271 16.0342 75.512 16.0001C77.024 16.0001 77.768 15.4721 77.768 14.4001C77.7821 14.1183 77.6958 13.8406 77.5244 13.6165C77.353 13.3924 77.1076 13.2363 76.832 13.1761C76.4181 13.0526 75.9912 12.9774 75.56 12.9521L74.696 12.8401C74.4256 12.7827 74.1586 12.7106 73.896 12.6241C73.6367 12.5457 73.3949 12.4181 73.184 12.2481C72.9718 12.0559 72.8045 11.8194 72.6939 11.5553C72.5833 11.2913 72.5321 11.0061 72.544 10.7201C72.6 9.32006 73.648 8.40806 75.496 8.40806Z" fill="#B69D78"></path><path d="M82.912 13.88C82.946 14.4457 83.1947 14.9772 83.6073 15.3657C84.0199 15.7543 84.5652 15.9707 85.132 15.9707C85.6988 15.9707 86.2441 15.7543 86.6567 15.3657C87.0693 14.9772 87.318 14.4457 87.352 13.88V8.79999C87.352 8.62399 87.408 8.56799 87.584 8.56799H87.952C88.128 8.56799 88.184 8.62399 88.184 8.79999V13.872C88.184 15.688 87.112 16.784 85.136 16.784C83.16 16.784 82.088 15.688 82.088 13.872V8.79999C82.088 8.62399 82.144 8.56799 82.312 8.56799H82.688C82.856 8.56799 82.912 8.62399 82.912 8.79999V13.88Z" fill="#B69D78"></path><path d="M99.224 8.56803C99.4 8.56803 99.456 8.62403 99.456 8.80003V16.384C99.456 16.56 99.4 16.616 99.224 16.616H98.888C98.72 16.616 98.664 16.56 98.664 16.384V11.768C98.6639 11.0964 98.7093 10.4255 98.8 9.76003H98.752C98.5021 10.3686 98.2107 10.9593 97.88 11.528L96.16 14.56C96.139 14.6126 96.1025 14.6576 96.0553 14.689C96.0082 14.7205 95.9526 14.7368 95.896 14.736H95.672C95.6145 14.7363 95.5581 14.7198 95.5098 14.6885C95.4615 14.6573 95.4233 14.6126 95.4 14.56L93.656 11.496C93.3463 10.9354 93.0789 10.3525 92.856 9.75203H92.808C92.89 10.4236 92.9327 11.0995 92.936 11.776V16.384C92.936 16.56 92.88 16.616 92.704 16.616H92.392C92.216 16.616 92.16 16.56 92.16 16.384V8.80003C92.16 8.62403 92.216 8.56803 92.392 8.56803H92.68C92.7458 8.5619 92.8119 8.5763 92.8692 8.60924C92.9265 8.64219 92.9722 8.69207 93 8.75203L95.8 13.728L98.584 8.80003C98.672 8.63203 98.72 8.60803 98.896 8.60803L99.224 8.56803Z" fill="#B69D78"></path><path d="M7.75201 14.84V20.624C7.75201 20.8458 7.66393 21.0584 7.50715 21.2152C7.35037 21.372 7.13773 21.46 6.91601 21.46C6.69429 21.46 6.48165 21.372 6.32487 21.2152C6.16809 21.0584 6.08 20.8458 6.08 20.624V14.848C6.31277 15.018 6.59187 15.1129 6.88 15.12C7.19412 15.129 7.50184 15.0302 7.75201 14.84V14.84ZM14.872 13.168C14.6598 13.168 14.4563 13.2523 14.3063 13.4023C14.1563 13.5524 14.072 13.7559 14.072 13.968V14.976C14.072 15.1978 14.1601 15.4104 14.3169 15.5672C14.4736 15.724 14.6863 15.812 14.908 15.812C15.1297 15.812 15.3424 15.724 15.4991 15.5672C15.6559 15.4104 15.744 15.1978 15.744 14.976V14.008C15.7502 13.8933 15.7317 13.7786 15.6896 13.6717C15.6475 13.5648 15.5829 13.4682 15.5002 13.3885C15.4175 13.3088 15.3185 13.2479 15.2101 13.2098C15.1017 13.1718 14.9864 13.1575 14.872 13.168V13.168ZM4.26401 17.032C3.97614 17.0234 3.69747 16.9287 3.46401 16.76V22.56C3.46401 22.7828 3.55251 22.9965 3.71004 23.154C3.86757 23.3115 4.08122 23.4 4.30401 23.4C4.52679 23.4 4.74045 23.3115 4.89798 23.154C5.05551 22.9965 5.14401 22.7828 5.14401 22.56V16.8C4.88277 16.9689 4.57454 17.0502 4.26401 17.032V17.032ZM12.264 11.432C12.1556 11.4266 12.0473 11.4433 11.9456 11.4811C11.8438 11.5188 11.7509 11.5769 11.6723 11.6517C11.5937 11.7266 11.5312 11.8166 11.4885 11.9164C11.4458 12.0161 11.4239 12.1235 11.424 12.232V16.688C11.424 16.9108 11.5125 17.1245 11.67 17.282C11.8276 17.4395 12.0412 17.528 12.264 17.528C12.4868 17.528 12.7004 17.4395 12.858 17.282C13.0155 17.1245 13.104 16.9108 13.104 16.688V12.288C13.1104 12.1726 13.0917 12.0571 13.0491 11.9496C13.0066 11.8421 12.9412 11.7451 12.8576 11.6652C12.774 11.5854 12.674 11.5246 12.5646 11.4871C12.4552 11.4496 12.339 11.4363 12.224 11.448L12.264 11.432ZM9.608 13.144C9.30669 13.142 9.01334 13.047 8.76801 12.872V18.688C8.76801 18.9108 8.8565 19.1245 9.01404 19.282C9.17157 19.4395 9.38522 19.528 9.608 19.528C9.83079 19.528 10.0444 19.4395 10.202 19.282C10.3595 19.1245 10.448 18.9108 10.448 18.688V12.88C10.1942 13.0691 9.88439 13.1677 9.56801 13.16L9.608 13.144ZM2.44801 17.6V1.35203C2.4459 1.15398 2.36574 0.964757 2.22494 0.825455C2.08414 0.686153 1.89407 0.608021 1.69601 0.608032H1.52001C1.32194 0.608021 1.13187 0.686153 0.991071 0.825455C0.850271 0.964757 0.770112 1.15398 0.768005 1.35203V17.6C0.768005 17.7995 0.847234 17.9908 0.988261 18.1318C1.12929 18.2728 1.32056 18.352 1.52001 18.352H1.69601C1.89545 18.352 2.08672 18.2728 2.22775 18.1318C2.36878 17.9908 2.44801 17.7995 2.44801 17.6V17.6ZM4.35201 16.416H4.17601C3.97656 16.416 3.78529 16.3368 3.64426 16.1958C3.50323 16.0548 3.42401 15.8635 3.42401 15.664V3.28803C3.42611 3.08998 3.50627 2.90076 3.64707 2.76145C3.78787 2.62215 3.97794 2.54402 4.17601 2.54403H4.35201C4.55007 2.54402 4.74014 2.62215 4.88094 2.76145C5.02174 2.90076 5.1019 3.08998 5.10401 3.28803V15.68C5.10401 15.8795 5.02478 16.0708 4.88375 16.2118C4.74272 16.3528 4.55145 16.432 4.35201 16.432V16.416ZM7.00001 14.512H6.81601C6.61869 14.512 6.42945 14.4337 6.28992 14.2941C6.15039 14.1546 6.07201 13.9654 6.07201 13.768V5.20803C6.07095 5.10966 6.08941 5.01205 6.12633 4.92086C6.16324 4.82967 6.21788 4.7467 6.28707 4.67677C6.35626 4.60683 6.43864 4.55131 6.52943 4.51342C6.62022 4.47553 6.71763 4.45603 6.81601 4.45603H7.00001C7.19806 4.45814 7.38729 4.5383 7.52659 4.6791C7.66589 4.8199 7.74402 5.00997 7.74401 5.20803V13.768C7.74401 13.9654 7.66562 14.1546 7.52609 14.2941C7.38657 14.4337 7.19733 14.512 7.00001 14.512V14.512ZM9.64801 12.552H9.48001C9.28194 12.552 9.09187 12.4739 8.95107 12.3346C8.81027 12.1953 8.73011 12.0061 8.72801 11.808V7.20003C8.72144 7.09732 8.73602 6.99435 8.77086 6.8975C8.8057 6.80064 8.86005 6.71198 8.93055 6.63698C9.00104 6.56199 9.08618 6.50226 9.18069 6.4615C9.27521 6.42075 9.37708 6.39982 9.48001 6.40003H9.65601C9.85545 6.40003 10.0467 6.47926 10.1878 6.62029C10.3288 6.76132 10.408 6.95259 10.408 7.15203V11.792C10.4091 11.8915 10.3904 11.9901 10.3531 12.0823C10.3158 12.1744 10.2605 12.2583 10.1906 12.329C10.1207 12.3996 10.0374 12.4557 9.94565 12.494C9.85388 12.5323 9.75544 12.552 9.65601 12.552H9.64801ZM12.304 10.832H12.128C11.9286 10.832 11.7373 10.7528 11.5963 10.6118C11.4552 10.4708 11.376 10.2795 11.376 10.08V8.88804C11.3781 8.68998 11.4583 8.50076 11.5991 8.36145C11.7399 8.22215 11.9299 8.14402 12.128 8.14404H12.304C12.5021 8.14402 12.6921 8.22215 12.8329 8.36145C12.9737 8.50076 13.0539 8.68998 13.056 8.88804V10.08C13.056 10.2781 12.9779 10.4682 12.8386 10.609C12.6993 10.7498 12.5101 10.8299 12.312 10.832H12.304Z" fill="#B69D78"></path></svg>