<svg xmlns="http://www.w3.org/2000/svg" width="92" height="22" viewBox="0 0 92 22" fill="none"><path d="M0.552799 21.26H21.0728V0.73999H0.552799V21.26ZM17.1232 9.02559H12.7872V4.68959H17.1232V9.02559ZM4.5016 4.68959H8.84V12.9744H17.1232V17.3104H4.5016V4.68959ZM34.4352 0.73999C32.406 0.73999 30.4223 1.34173 28.735 2.46911C27.0478 3.5965 25.7327 5.19889 24.9562 7.07366C24.1796 8.94843 23.9765 11.0114 24.3723 13.0016C24.7682 14.9919 25.7454 16.82 27.1803 18.2549C28.6152 19.6898 30.4433 20.667 32.4336 21.0628C34.4238 21.4587 36.4868 21.2556 38.3615 20.479C40.2363 19.7024 41.8387 18.3874 42.9661 16.7001C44.0935 15.0129 44.6952 13.0292 44.6952 11C44.692 8.27984 43.61 5.67202 41.6866 3.74858C39.7632 1.82515 37.1553 0.743166 34.4352 0.73999V0.73999ZM34.4352 17.3104C33.1871 17.3104 31.9671 16.9403 30.9293 16.2469C29.8916 15.5535 29.0828 14.568 28.6051 13.4149C28.1275 12.2618 28.0026 10.993 28.246 9.76889C28.4895 8.5448 29.0905 7.42039 29.9731 6.53786C30.8556 5.65534 31.98 5.05433 33.2041 4.81084C34.4282 4.56735 35.697 4.69232 36.8501 5.16994C38.0032 5.64756 38.9887 6.45638 39.6821 7.49412C40.3755 8.53186 40.7456 9.75191 40.7456 11C40.7431 12.6728 40.0774 14.2764 38.8945 15.4593C37.7116 16.6422 36.108 17.3079 34.4352 17.3104V17.3104ZM81.4104 0.73999C79.3811 0.739832 77.3974 1.34144 75.71 2.46872C74.0227 3.59601 72.7075 5.19835 71.9308 7.0731C71.1541 8.94786 70.9508 11.0108 71.3466 13.0011C71.7424 14.9914 72.7195 16.8197 74.1544 18.2546C75.5893 19.6896 77.4174 20.6668 79.4077 21.0628C81.3979 21.4587 83.4609 21.2556 85.3357 20.4791C87.2106 19.7025 88.813 18.3875 89.9404 16.7002C91.0678 15.013 91.6696 13.0293 91.6696 11C91.6664 8.27998 90.5846 5.67228 88.6613 3.74886C86.738 1.82545 84.1304 0.743378 81.4104 0.73999V0.73999ZM81.4104 17.3104C80.1623 17.3105 78.9422 16.9406 77.9043 16.2473C76.8665 15.554 76.0575 14.5685 75.5798 13.4154C75.102 12.2624 74.977 10.9935 75.2204 9.76938C75.4638 8.54523 76.0647 7.42075 76.9472 6.53815C77.8297 5.65554 78.9541 5.05445 80.1782 4.8109C81.4023 4.56735 82.6712 4.69227 83.8243 5.16986C84.9774 5.64746 85.963 6.45628 86.6564 7.49404C87.3499 8.53179 87.72 9.75188 87.72 11C87.7175 12.6727 87.0519 14.2762 85.8692 15.459C84.6865 16.6419 83.0831 17.3076 81.4104 17.3104V17.3104ZM57.9224 0.73999C55.8932 0.73999 53.9095 1.34173 52.2222 2.46911C50.535 3.5965 49.2199 5.19889 48.4434 7.07366C47.6668 8.94843 47.4637 11.0114 47.8595 13.0016C48.2554 14.9919 49.2326 16.82 50.6675 18.2549C52.1024 19.6898 53.9305 20.667 55.9208 21.0628C57.911 21.4587 59.974 21.2556 61.8487 20.479C63.7235 19.7024 65.3259 18.3874 66.4533 16.7001C67.5807 15.0129 68.1824 13.0292 68.1824 11C68.1792 8.27984 67.0972 5.67202 65.1738 3.74858C63.2504 1.82515 60.6425 0.743166 57.9224 0.73999ZM57.9224 17.3104C56.7596 17.311 55.6192 16.9902 54.6272 16.3836C53.6351 15.777 52.83 14.908 52.3006 13.8727C51.7713 12.8373 51.5383 11.6759 51.6274 10.5164C51.7165 9.35704 52.1242 8.2448 52.8055 7.3025C53.4869 6.3602 54.4153 5.62448 55.4884 5.17655C56.5615 4.72863 57.7375 4.58592 58.8866 4.76418C60.0357 4.94244 61.1132 5.43473 62.0001 6.18672C62.8871 6.93871 63.549 7.92115 63.9128 9.02559H57.9224V12.9744H63.9128C63.4961 14.2346 62.6932 15.3317 61.618 16.11C60.5427 16.8883 59.2497 17.3083 57.9224 17.3104V17.3104Z" fill="#B69D78"></path></svg>