<svg xmlns="http://www.w3.org/2000/svg" width="102" height="28" viewBox="0 0 102 28" fill="none"><path d="M16.984 7.11206H18.584V18.2481H23.384V19.8481H16.984V7.11206ZM28.368 7.11206C29.3174 7.11206 30.2454 7.39357 31.0347 7.92101C31.8241 8.44844 32.4393 9.19809 32.8026 10.0752C33.1659 10.9523 33.261 11.9174 33.0758 12.8485C32.8906 13.7796 32.4334 14.6349 31.7621 15.3062C31.0908 15.9775 30.2356 16.4346 29.3044 16.6198C28.3733 16.805 27.4082 16.71 26.5311 16.3467C25.654 15.9834 24.9044 15.3682 24.377 14.5788C23.8495 13.7894 23.568 12.8614 23.568 11.9121C23.568 11.2817 23.6922 10.6575 23.9334 10.0752C24.1746 9.49281 24.5282 8.96367 24.9739 8.51794C25.4196 8.07222 25.9488 7.71866 26.5311 7.47744C27.1135 7.23621 27.7377 7.11206 28.368 7.11206V7.11206ZM28.368 15.1121C29.0009 15.1121 29.6196 14.9244 30.1458 14.5728C30.6721 14.2211 31.0822 13.7214 31.3244 13.1366C31.5666 12.5519 31.63 11.9085 31.5065 11.2878C31.383 10.667 31.0783 10.0968 30.6307 9.64932C30.1832 9.20179 29.613 8.89702 28.9923 8.77354C28.3716 8.65007 27.7281 8.71344 27.1434 8.95564C26.5587 9.19784 26.0589 9.608 25.7073 10.1342C25.3557 10.6605 25.168 11.2792 25.168 11.9121C25.1722 12.758 25.5112 13.5678 26.1109 14.1645C26.7106 14.7611 27.5221 15.0961 28.368 15.0961V15.1121ZM25.168 18.2641H31.568V19.8641H25.168V18.2641ZM45.648 19.8641H44.048V18.7201C43.0162 19.4423 41.7875 19.8305 40.528 19.8321C39.454 19.8392 38.3955 19.576 37.4499 19.0667C36.5044 18.5573 35.7022 17.8182 35.1173 16.9173C34.5325 16.0165 34.1837 14.983 34.1032 13.912C34.0227 12.841 34.213 11.767 34.6566 10.7888C35.1002 9.81071 35.7828 8.95994 36.6416 8.31492C37.5003 7.6699 38.5076 7.25137 39.5706 7.09789C40.6336 6.9444 41.7181 7.06091 42.7243 7.43667C43.7304 7.81243 44.6258 8.43535 45.328 9.24806L44.152 10.2961C43.618 9.69897 42.9429 9.24504 42.1885 8.97564C41.4341 8.70624 40.6243 8.62994 39.8328 8.75369C39.0413 8.87744 38.2934 9.19731 37.6572 9.68415C37.0211 10.171 36.5168 10.8093 36.1905 11.5409C35.8642 12.2725 35.7262 13.0742 35.7891 13.8728C35.852 14.6714 36.1137 15.4416 36.5505 16.1131C36.9873 16.7846 37.5851 17.3362 38.2897 17.7175C38.9942 18.0988 39.7829 18.2977 40.584 18.2961C41.2488 18.2974 41.9061 18.1552 42.5109 17.879C43.1156 17.6029 43.6536 17.1994 44.088 16.6961H39.768V15.0961H45.664L45.648 19.8641ZM51.536 7.14406C52.4854 7.14406 53.4134 7.42557 54.2027 7.953C54.9921 8.48043 55.6073 9.23009 55.9706 10.1072C56.3339 10.9843 56.429 11.9494 56.2438 12.8805C56.0586 13.8116 55.6014 14.6669 54.9301 15.3382C54.2588 16.0095 53.4035 16.4666 52.4724 16.6518C51.5413 16.837 50.5762 16.742 49.6991 16.3787C48.822 16.0154 48.0724 15.4002 47.545 14.6108C47.0175 13.8214 46.736 12.8934 46.736 11.9441C46.7318 11.3097 46.8533 10.6807 47.0937 10.0936C47.334 9.50653 47.6883 8.97288 48.1362 8.52355C48.584 8.07422 49.1165 7.71813 49.7028 7.47585C50.2891 7.23358 50.9176 7.10993 51.552 7.11206L51.536 7.14406ZM51.536 15.1441C52.1689 15.1441 52.7876 14.9564 53.3138 14.6048C53.8401 14.2531 54.2502 13.7534 54.4924 13.1686C54.7346 12.5839 54.798 11.9405 54.6745 11.3198C54.551 10.699 54.2463 10.1288 53.7987 9.68132C53.3512 9.23379 52.781 8.92902 52.1603 8.80555C51.5396 8.68207 50.8961 8.74544 50.3114 8.98764C49.7267 9.22984 49.2269 9.64 48.8753 10.1662C48.5237 10.6925 48.336 11.3112 48.336 11.9441C48.3486 12.7872 48.6935 13.5912 49.2958 14.1815C49.898 14.7717 50.7088 15.1004 51.552 15.0961L51.536 15.1441ZM48.336 18.2961H54.736V19.8961H48.336V18.2961ZM58.04 7.11206H59.64V19.8321H58.04V7.11206ZM61.856 7.11206H63.456C63.5384 7.10332 63.6216 7.10332 63.704 7.11206C64.3741 7.03936 65.052 7.10861 65.6935 7.31528C66.3351 7.52195 66.9259 7.86143 67.4276 8.3116C67.9292 8.76177 68.3304 9.31254 68.6051 9.92805C68.8797 10.5436 69.0217 11.21 69.0217 11.8841C69.0217 12.5581 68.8797 13.2245 68.6051 13.8401C68.3304 14.4556 67.9292 15.0064 67.4276 15.4565C66.9259 15.9067 66.3351 16.2462 65.6935 16.4528C65.052 16.6595 64.3741 16.7288 63.704 16.6561H63.456V19.8561H61.856V7.11206ZM63.456 8.71206V15.0401H63.704C64.1559 15.1002 64.6155 15.0632 65.0519 14.9313C65.4883 14.7994 65.8915 14.5759 66.2345 14.2755C66.5775 13.9752 66.8524 13.605 67.0407 13.1898C67.229 12.7746 67.3264 12.324 67.3264 11.8681C67.3264 11.4122 67.229 10.9615 67.0407 10.5463C66.8524 10.1311 66.5775 9.76095 66.2345 9.4606C65.8915 9.16026 65.4883 8.93667 65.0519 8.80482C64.6155 8.67296 64.1559 8.63588 63.704 8.69606C63.6168 8.70513 63.531 8.72391 63.448 8.75206L63.456 8.71206ZM74.984 8.03206L73.8 8.96806C73.5957 8.75462 73.3348 8.60392 73.0478 8.53367C72.7609 8.46342 72.4598 8.47653 72.18 8.57146C71.9003 8.6664 71.6534 8.83922 71.4685 9.0696C71.2835 9.29999 71.1682 9.57838 71.136 9.87206V10.0001C71.136 10.7041 71.624 11.1761 72.576 11.2401C76.24 11.4641 77.92 13.1841 77.92 15.4561V15.6001C77.8254 16.4993 77.4745 17.3524 76.9091 18.058C76.3436 18.7635 75.5874 19.2919 74.7304 19.5801C73.8733 19.8683 72.9516 19.9042 72.0747 19.6837C71.1978 19.4632 70.4027 18.9954 69.784 18.3361L71.008 17.3921C71.2929 17.6974 71.6408 17.9371 72.0276 18.0946C72.4144 18.2521 72.8308 18.3235 73.248 18.3041C74.0185 18.3447 74.775 18.086 75.3593 17.5822C75.9437 17.0783 76.3108 16.3682 76.384 15.6001V15.4881C76.384 13.3521 74.288 12.9601 72.472 12.7841C70.792 12.6241 69.584 11.5761 69.584 10.0641V10.0001C69.6432 9.21287 70.0025 8.47848 70.5875 7.94851C71.1726 7.41853 71.9388 7.13343 72.728 7.15206C73.1462 7.13971 73.5624 7.21521 73.9496 7.37368C74.3368 7.53214 74.6865 7.77006 74.976 8.07206L74.984 8.03206ZM84.184 18.2081C86.176 18.2081 87.752 16.0561 87.752 13.4081V7.00806H89.352V13.4081C89.352 16.9281 87.048 19.7681 84.216 19.7681C81.384 19.7681 79.08 16.9281 79.08 13.4081V7.00806H80.68V13.4081C80.616 16.0961 82.192 18.2481 84.176 18.2481L84.184 18.2081ZM101.632 19.8081H100.032V11.8881L96.344 16.6881L92.656 11.8881V19.8321H91.056V7.11206L96.336 14.0641L101.616 7.11206L101.632 19.8081Z" fill="#B69D78"></path><path d="M9.30401 5.20002C9.30401 4.0458 8.84549 2.93885 8.02933 2.12269C7.21317 1.30653 6.10623 0.848022 4.95201 0.848022C3.79778 0.848022 2.69084 1.30653 1.87468 2.12269C1.05852 2.93885 0.600006 4.0458 0.600006 5.20002V18.36L4.18401 20.928V27.184H5.72001V20.928L9.30401 18.36V5.20002ZM7.768 12.56L5.72001 14.608V12.688L7.768 10.64V12.56ZM2.16801 10.64L4.21601 12.688V14.608L2.16801 12.56V10.64ZM7.768 8.46402L4.95201 11.28L2.13601 8.40002V6.48002L4.95201 9.29602L7.768 6.48002V8.46402ZM4.95201 2.38402C5.57133 2.38676 6.17267 2.59244 6.66394 2.96957C7.15521 3.34669 7.50931 3.87445 7.67201 4.47202L4.95201 7.18402L2.23201 4.47202C2.38876 3.8685 2.7403 3.33359 3.23211 2.95027C3.72391 2.56695 4.32848 2.35666 4.95201 2.35202V2.38402ZM2.13601 17.584V14.704L4.18401 16.752V19.04L2.13601 17.584ZM5.72001 19.048V16.752L7.768 14.704V17.576L5.72001 19.048Z" fill="#B69D78"></path></svg>