<svg xmlns="http://www.w3.org/2000/svg" width="129" height="64" viewBox="0 0 129 64" fill="none"><path fill-rule="evenodd" clip-rule="evenodd" d="M93.4957 0.042088C93.0229 -0.045877 92.5291 -0.00903129 92.0926 0.278397C91.1842 0.876483 91.0102 1.85072 90.8095 2.57795C90.4629 3.83404 90.5889 5.08893 90.6894 6.20692C90.8905 8.44615 91.6621 10.4802 92.0041 12.4664C92.2085 13.6542 92.3889 14.8472 92.5496 16.0431C91.9204 17.5304 91.2704 19.0082 90.631 20.4474C89.1586 23.7619 87.4668 26.9997 85.8461 30.2936C84.1233 33.7947 82.5461 37.3367 80.6708 40.6838C79.3508 43.0398 78.582 44.565 77.2166 46.2801C76.7998 46.8036 76.0864 47.5512 75.7878 47.6908C75.4893 47.8304 75.2855 47.8475 75.1528 47.8012C75.0521 47.7662 74.9404 47.658 74.8028 47.357C74.6653 47.0561 74.5498 46.6299 74.3898 46.2039C73.7306 44.4494 73.4655 42.5026 73.3628 40.5567C73.3113 39.5803 73.4038 38.5788 73.4998 37.5708C74.3552 35.271 75.2402 32.9786 76.1545 30.6933C77.7754 26.6422 79.642 22.663 81.3074 18.5704C82.1891 16.4036 83.3363 14.227 83.938 11.7915C84.0636 11.2836 84.2904 10.6681 84.4321 9.99744C84.5737 9.32674 84.6329 8.55535 84.2863 7.81321C83.8801 6.94338 83.0355 6.43196 82.1241 6.36887C80.7601 6.27446 79.6894 7.14012 78.9095 7.82736C77.7068 8.88723 77.083 10.3262 76.4833 11.5582C75.5692 13.4362 74.9633 15.4274 74.4519 17.3933C73.7102 20.2444 73.2813 23.1522 72.9269 26.0347C72.6345 28.4125 72.5995 30.7736 72.4311 33.0811C72.3313 34.4489 72.1485 35.8553 72.0082 37.2848C71.4875 38.691 70.964 40.0962 70.4866 41.5206C70.3287 41.9917 70.2157 42.4632 70.0677 42.936C69.7242 41.9735 69.2953 41.0888 69.0187 40.2869C68.7084 39.3869 68.3565 38.5816 68.2276 37.8125C68.1005 37.0534 68.163 35.0303 68.163 35.0303C68.1979 34.2244 67.1101 33.9392 66.7451 34.6585C66.7451 34.6585 64.8957 38.3011 63.7474 40.1272C63.5071 40.5093 62.6878 41.5606 62.2764 42.0725C62.4014 41.3677 63.0752 39.2558 63.1533 38.7099C63.3903 37.0536 63.9743 35.3963 63.5114 34.75C63.2293 34.3563 62.4663 33.9506 62.0622 34.6461C62.0622 34.6461 60.483 37.3626 59.7112 38.7582C59.0875 39.8859 58.6582 40.7189 57.9 42.1467C58.4799 38.9036 59.4715 35.6777 60.0486 32.3001C60.2792 30.9505 61.1372 29.2503 60.5912 27.4257C60.505 27.1377 60.3745 26.8143 60.148 26.505C59.9216 26.1958 59.5459 25.8531 59.0046 25.8234C58.9256 25.819 58.8588 25.8447 58.7829 25.8485C59.0649 24.7496 59.3654 23.6555 59.589 22.5424C59.8618 21.1845 60.5026 19.5786 60.1262 17.8518C59.9003 16.8151 59.3682 15.851 58.2581 15.2129C57.2655 14.6422 56.1922 14.9007 55.4173 15.0751C53.7178 15.4576 52.311 16.1657 51.0097 17.059C48.7566 18.6058 46.669 20.4573 44.9203 22.5781C43.8757 23.8448 43.0139 25.2278 42.2193 26.6425C41.7918 26.0849 41.3148 25.5638 40.7138 25.1546C38.7601 23.8243 36.3153 23.9686 34.3201 23.9235C31.9457 23.8697 29.5819 24.2715 27.3343 24.8809C23.6905 25.8689 20.2586 27.4726 16.963 29.1752C13.1532 31.1433 9.94681 33.2649 6.5099 35.8116C4.07413 37.6166 0.702323 40.95 0.411497 41.2963C-0.440558 42.3108 0.150422 43.3277 1.09452 42.4676C1.4288 42.163 4.72471 38.8805 6.97525 37.2128C10.3556 34.708 13.9224 32.4336 17.651 30.5074C20.9102 28.8237 24.2493 27.2709 27.7263 26.3281C29.8775 25.7448 32.104 25.3733 34.2861 25.4227C36.3494 25.4694 38.4677 25.4398 39.8695 26.3943C40.4899 26.8167 40.9915 27.4415 41.4274 28.1454C41.1742 28.639 40.89 29.1237 40.6513 29.6187C39.5061 31.9931 38.5934 34.4871 37.9106 37.0283C36.9355 40.6576 36.3573 44.3845 36.001 48.1004C35.7582 50.6327 35.4526 53.3982 35.8647 56.2059C35.9451 56.7539 36.1899 57.4937 36.5209 58.1837C36.6864 58.5287 36.8923 58.8664 37.1967 59.1489C37.5011 59.4313 37.9325 59.6481 38.4093 59.6661C38.8759 59.6837 39.3147 59.4927 39.6199 59.2332C39.925 58.9738 40.1294 58.6617 40.3006 58.3472C40.6428 57.7182 40.9144 57.0571 41.0645 56.6297C42.1514 53.5356 42.986 50.684 43.5827 47.7456C44.2338 44.5399 44.7482 41.259 44.8193 37.9445C44.8695 35.6063 44.9951 33.0733 44.1978 30.667C43.9238 29.8404 43.5535 28.9701 43.1281 28.1324C43.999 26.5043 44.9315 24.9218 46.0774 23.5321C47.7258 21.5331 49.7098 19.77 51.8588 18.2947C53.1343 17.419 54.3969 16.8415 55.7467 16.5378C56.4696 16.3751 57.1726 16.3183 57.5111 16.5128C58.0228 16.807 58.4884 17.3802 58.6609 18.1714C58.9114 19.3211 58.4264 20.7186 58.1193 22.2471C57.8142 23.7658 57.4313 25.2721 57.0164 26.7702C56.8988 26.8912 56.7472 26.9878 56.6461 27.1132C56.1056 27.7838 55.6823 28.5345 55.3027 29.0017C53.8225 30.8231 52.7234 32.8814 51.6879 34.8903C50.2382 37.7025 48.9204 40.6222 47.957 43.6698C47.485 45.1627 47.0315 46.3225 46.8932 47.6247C46.7811 48.6798 47.7006 48.9044 48.3451 48.5466C48.9895 48.1888 49.2616 47.705 49.7646 47.0497C50.8412 45.6472 51.7305 44.1248 52.5268 42.5876C54.1827 39.3911 55.5535 36.0539 56.7412 32.6748C57.341 30.9683 57.8901 29.2381 58.3825 27.4905C58.5496 27.3766 58.7108 27.3228 58.8792 27.3225C58.8711 27.314 58.8809 27.3186 58.9219 27.3208C58.9074 27.32 58.8935 27.3225 58.8792 27.3225C58.8858 27.3295 58.9028 27.3432 58.9378 27.3911C59.0158 27.4976 59.107 27.6958 59.1549 27.8558C59.482 28.9488 58.8527 30.3953 58.5704 32.0476C57.9917 35.4342 56.9158 38.7974 56.3278 42.3274C56.1153 43.603 55.7986 45.2835 55.7438 45.8839C55.6693 46.7012 57.0553 47.2479 57.4365 46.5211C57.7165 45.9872 59.7609 41.7672 61.0239 39.4836C61.1994 39.1662 61.334 38.944 61.5697 38.5296C61.5079 39.0684 61.4272 39.5084 61.3263 39.9923C61.0821 41.1643 60.4673 42.701 60.4515 43.4756C60.4295 44.5573 61.6008 45.4825 62.5242 44.5271C63.0627 43.9699 64.0828 42.4101 65.0165 40.9252C65.7095 39.8231 66.0946 39.0082 66.7333 37.7955C66.7438 37.8796 66.7359 37.9823 66.749 38.0606C66.92 39.0815 67.3206 39.9603 67.602 40.7761C68.0818 42.1674 68.8151 43.3014 68.9753 44.4058C69.0616 45.0011 69.0893 45.6074 69.0978 46.217C68.5833 48.0257 68.0446 49.8432 67.4988 51.6215C66.8215 53.8285 65.8834 56.0349 65.3383 58.4223C64.9547 60.1022 64.4746 61.5526 64.6488 63.2616C64.698 63.745 65.5299 64.3546 66.0247 63.7428C66.3651 63.3219 67.3756 61.6891 67.9141 60.3633C68.8646 58.0231 69.4447 55.5562 69.8526 53.108C70.2134 50.9425 70.6241 48.6775 70.6115 46.3846C71.0299 44.9198 71.4291 43.4289 71.909 41.9973C71.9332 41.925 71.9619 41.8539 71.9863 41.7816C72.1324 43.4462 72.3845 45.1283 72.9865 46.7307C73.1051 47.0465 73.2249 47.5108 73.4394 47.98C73.654 48.4492 74.0117 48.991 74.6594 49.2168C75.299 49.4397 75.9259 49.2814 76.4236 49.0486C76.9212 48.8158 77.6611 48.047 78.1675 47.4396C79.6888 45.6146 80.7659 43.5819 81.979 41.4169C83.8993 37.9895 85.4861 34.4219 87.1917 30.9555C88.8016 27.6836 90.4935 24.2637 91.9511 20.8316C92.2658 20.0908 92.567 19.3516 92.8609 18.6102C92.9072 19.0303 92.9544 19.4505 92.9961 19.8711C93.1372 21.2955 93.2113 22.6769 93.3222 24.1705C93.3756 24.8895 93.4135 25.6746 93.4896 26.3784C91.8638 28.269 90.2026 30.123 88.6229 32.1257C87.5795 33.4486 86.8959 34.3793 85.6257 36.2102C85.29 36.694 85.2437 37.2511 85.3035 37.7375C85.3634 38.2239 85.6506 38.7873 86.0001 39.1981C86.4516 39.7291 87.0014 40.1554 87.7186 40.3893C88.795 40.7403 90.0262 40.912 91.1368 40.5405C92.2187 40.1785 92.9551 39.3927 93.5875 38.5341C94.3618 37.4828 94.5005 36.2824 94.7297 35.1973C95.0651 33.6092 95.1626 32.0354 95.146 30.5215C95.1325 29.2895 95.1754 28.0517 95.0469 26.8646C95.5787 26.2372 96.1281 25.6334 96.6371 24.9797C96.7843 24.7907 97.0061 24.4621 97.1622 24.2579C96.9364 24.8046 96.6675 25.3272 96.4915 25.8995C96.0845 27.2238 95.818 28.6349 95.8362 30.0623C95.844 30.6698 95.7325 31.5923 96.3353 32.4066C96.7368 32.949 97.0935 33.4943 97.9633 33.3776C98.6695 33.2828 99.2816 32.7544 99.6211 32.3505C99.9606 31.9466 100.371 31.5719 100.592 31.3486C101.303 30.6317 102.387 29.3217 103.073 28.5193C103.039 28.8143 102.857 29.5312 102.906 30.0381C102.937 30.3665 102.972 30.6727 103.199 30.9834C103.426 31.294 103.767 31.6058 104.257 31.698C104.888 31.8169 105.422 31.5308 105.789 31.2594C106.157 30.988 106.443 30.692 106.652 30.5301C107.77 29.6614 108.669 28.602 109.508 27.578C110.038 26.9315 110.448 26.2621 110.829 25.6741C111.045 25.9478 111.282 26.2638 111.338 26.3893C111.604 26.9858 111.619 27.8181 111.755 28.7553C111.845 29.3774 111.872 29.9766 111.949 30.5898C111.637 30.9788 111.314 31.3689 111.016 31.7501C110.096 32.9278 109.248 34.1766 108.52 35.4963C107.584 37.1957 106.632 38.9827 106.091 40.9516C105.633 42.6195 104.928 44.599 105.48 46.592C105.766 47.6212 106.417 48.6913 107.525 49.186C108.389 49.5719 109.317 49.4064 110.049 49.028C111.124 48.4723 111.698 47.4361 112.127 46.5772C112.82 45.1897 112.957 43.6932 113.156 42.3652C113.612 39.327 113.793 36.241 113.727 33.1745C113.711 32.4484 113.583 31.762 113.504 31.0535C114.088 30.3613 114.982 29.603 115.656 29.077C117.353 27.7525 119.023 26.8144 121.067 26.1167C122.532 25.6167 124.009 25.1509 125.271 25.384C125.608 25.4462 125.983 25.5464 126.248 25.6759C127.216 26.1129 126.18 27.2937 125.878 27.6412C125.298 28.275 124.647 28.7199 123.899 29.2927C122.805 30.1312 121.83 30.8039 120.67 31.3276C119.797 31.722 119.332 32.0029 117.913 32.1384C116.852 32.2397 116.738 33.1655 117.916 33.2173C119.349 33.2803 119.732 33.2094 121.298 32.6197C122.766 32.0665 123.978 31.2663 124.925 30.5319C125.667 29.9641 126.54 29.3766 127.146 28.607C127.477 28.1876 127.725 27.6943 127.882 27.1841C128.043 26.6633 128.293 26.2209 128.078 25.5614C127.875 24.937 127.376 24.5586 126.907 24.3289C126.437 24.0991 125.951 23.985 125.544 23.9099C123.76 23.5803 122.049 24.1975 120.582 24.698C118.384 25.4487 116.571 26.4612 114.734 27.895C114.307 28.2283 113.669 28.731 113.299 29.109C113.272 28.9232 113.266 28.725 113.239 28.5404C113.126 27.7572 113.15 26.769 112.707 25.7782C112.495 25.3038 112.158 24.8989 111.861 24.548C111.563 24.1972 111.301 23.9283 111.301 23.9283C110.964 23.582 110.391 23.6415 110.132 24.0499C110.132 24.0499 108.953 25.8904 108.349 26.6279C107.523 27.6357 106.689 28.6028 105.732 29.3459C105.396 29.6066 105.124 29.8863 104.898 30.0527C104.673 30.219 104.58 30.2332 104.534 30.2246C104.55 30.2275 104.493 30.2114 104.411 30.0992C104.329 29.9869 104.248 29.8029 104.213 29.6586C104.119 29.2746 104.43 28.6101 104.682 27.7192C105.061 26.3836 106.195 23.5743 106.195 23.5743C106.552 22.6945 105.284 22.1017 104.838 22.9403C104.838 22.9403 103.173 26.0491 102.228 27.3257C101.457 28.3661 100.499 29.3133 99.5275 30.2922C99.1374 30.6854 98.8311 30.9828 98.5817 31.2795C98.1579 31.7256 97.9189 31.7644 97.5405 31.5146C97.3739 31.2895 97.3442 30.7285 97.3354 30.0428C97.3199 28.8159 97.5519 27.5528 97.9248 26.3398C98.5731 24.2309 99.552 22.2051 100.672 20.1707C101.299 19.0313 102.249 17.526 103.221 16.0425C104.166 15.6283 105.144 15.2427 106.122 14.8335C107.884 14.097 109.541 13.4745 111.356 12.8795C113.264 12.2543 115.182 11.6292 117.106 11.0377C117.894 10.7954 117.833 9.88664 117.012 9.89019C116.92 9.88122 116.827 9.88941 116.737 9.91446C116.737 9.91446 112.999 10.8398 110.98 11.5017C109.128 12.1087 107.343 12.6978 105.544 13.45C105.275 13.5626 104.999 13.6741 104.726 13.7857C105.971 11.9476 107.001 10.4837 107.009 10.471L107.019 10.4565V10.4557C107.545 9.63783 106.352 8.82254 105.781 9.61001L105.78 9.6107C105.78 9.6107 103.422 12.562 102.278 14.2794C102.129 14.5024 101.978 14.7544 101.821 15.0263C101.067 15.3804 100.322 15.7704 99.6032 16.2249C98.8171 16.7215 98.0609 17.3155 97.4184 18.0335C96.7038 18.8324 96.032 20.055 96.032 20.055C95.5349 20.9329 96.9405 21.5836 97.4215 20.6967C97.4215 20.6967 98.1203 19.4985 98.536 19.0339C99.0545 18.4543 99.6905 17.9478 100.375 17.5126C99.3872 19.1176 97.9363 21.2212 95.4535 24.0587C95.2478 24.2938 95.035 24.5422 94.8378 24.7856C94.8184 24.5736 94.7889 24.3551 94.7732 24.1442C94.6663 22.7045 94.5221 21.1773 94.3732 19.6747C94.2478 18.4096 94.086 17.1501 93.9015 15.8936C94.4311 14.4733 94.9493 13.0375 95.481 11.5603C96.0495 9.98109 96.4666 8.69144 96.8218 6.9469C97.0159 5.99401 96.966 5.02619 96.9427 4.35754C96.9206 3.72345 96.3198 3.71173 96.2739 4.34914C96.2104 5.23022 96.1213 5.66415 95.9891 6.31528C95.6686 7.88892 95.1401 9.34954 94.5616 10.9565C94.2432 11.841 93.8994 12.7322 93.5439 13.6242C93.4647 13.1442 93.3851 12.664 93.3025 12.1839C92.9279 10.0078 92.3596 8.04046 92.1829 6.07304C92.0826 4.95762 92.0052 3.8825 92.2551 2.977C92.4409 2.30392 92.6622 1.82647 92.9671 1.62572C93.1988 1.47315 93.7119 1.37713 93.9694 1.44292C94.2978 1.5268 94.528 1.67982 94.7809 1.99492C95.0944 2.38544 95.2472 2.57601 95.4771 2.86924C95.8587 3.35612 96.3854 3.11971 96.1832 2.61499C96.0013 2.16096 95.9229 1.86221 95.6157 1.43655C95.1541 0.796948 94.7535 0.512728 94.3066 0.307678C94.055 0.192218 93.7792 0.094864 93.4955 0.0420854L93.4957 0.042088ZM82.0204 7.86469C82.332 7.88627 82.8145 8.20688 82.927 8.44783C83.0746 8.76387 83.0757 9.16558 82.9655 9.68743C82.8553 10.2093 82.6366 10.8057 82.482 11.4315C81.9381 13.6326 80.8368 15.7489 79.9184 18.0058C78.2727 22.0501 76.6497 25.6417 75.0073 29.7467C74.7508 30.3877 73.9785 32.4219 73.724 33.0646C73.8405 31.0891 74.1809 28.1237 74.4152 26.2177C74.7666 23.3595 75.1889 20.5178 75.9034 17.7712C76.4041 15.8466 76.9862 13.9512 77.8315 12.2146C78.4446 10.955 79.0251 9.72489 79.9014 8.95265C80.5995 8.33747 81.4192 7.82307 82.0204 7.86469ZM93.6671 28.5008C93.7252 29.1703 93.7982 29.8428 93.8055 30.5017C93.822 32.0143 93.8304 33.4969 93.5403 34.8702C93.3159 35.9326 93.0555 36.9525 92.5282 37.6684C92.0471 38.3217 91.2306 39.0165 90.5319 39.2502C89.7854 39.4999 89.0472 39.463 88.2763 39.2525C87.7661 39.1132 87.4234 38.9643 87.0816 38.6864C86.8392 38.4895 86.559 38.2489 86.5161 37.9395C86.4729 37.6293 86.8056 37.1396 86.8579 37.0643C88.1201 35.2448 88.7709 34.3591 89.8002 33.0542C91.021 31.5065 92.3427 30.0111 93.6671 28.5008ZM112.174 32.7077C112.182 32.872 112.224 33.0438 112.227 33.2075C112.292 36.1931 112.115 39.1939 111.673 42.1424C111.467 43.5187 111.314 44.8484 110.785 45.9074C110.395 46.6885 109.914 47.4094 109.36 47.6956C108.979 47.8926 108.416 47.9411 108.136 47.8163C107.623 47.587 107.115 46.8736 106.925 46.1912C106.538 44.7938 107.064 43.0728 107.538 41.3481C108.02 39.5916 108.906 37.9041 109.834 36.2201C110.51 34.9935 111.306 33.8221 112.174 32.7077ZM55.6654 31.116C55.5463 31.468 55.4495 31.8267 55.3263 32.1772C54.1559 35.5072 52.8109 38.7803 51.1957 41.8983C50.5774 43.0918 49.7268 44.6531 48.9724 45.7383C49.0878 45.211 49.2083 44.6483 49.3867 44.1214C50.3794 41.19 51.5948 38.3424 53.0202 35.5772C53.8252 34.0157 54.6928 32.5151 55.6654 31.116ZM42.2247 29.8474C42.4047 30.2838 42.6272 30.6939 42.7745 31.1382C43.4555 33.1934 43.3705 35.5514 43.3198 37.9122C43.2516 41.0926 42.7554 44.2862 42.1135 47.447C41.5105 50.416 40.7519 53.1108 39.7199 55.9671C39.5037 56.5654 39.2267 57.1844 38.9839 57.6306C38.8625 57.8536 38.7366 58.0159 38.6484 58.0909C38.5602 58.1659 38.543 58.1699 38.4653 58.1669C38.3674 58.1632 38.3189 58.1442 38.217 58.0497C38.1151 57.9551 37.9878 57.7744 37.8731 57.5353C37.6436 57.0569 37.3983 56.3919 37.3086 55.8024C36.959 53.5065 37.2383 50.9102 37.494 48.2435C37.8447 44.5861 38.412 40.9408 39.3589 37.4167C40.0185 34.9618 40.8997 32.5557 42.0019 30.2704C42.0714 30.1264 42.1544 29.991 42.2247 29.8474Z" fill="white"></path></svg>