<svg width="92" height="43" viewBox="0 0 92 43" fill="none" xmlns="http://www.w3.org/2000/svg">
<path d="M0.704 34V33.68L1.28 33.456C1.70667 33.2853 1.99467 33.072 2.144 32.816C2.31467 32.56 2.4 32.2187 2.4 31.792V15.088C2.4 14.64 2.31467 14.288 2.144 14.032C1.99467 13.776 1.70667 13.5733 1.28 13.424L0.704 13.2V12.88H9.888C12.4907 12.88 14.368 13.36 15.52 14.32C16.672 15.2587 17.248 16.4533 17.248 17.904C17.248 18.992 16.8213 19.984 15.968 20.88C15.136 21.7547 13.696 22.3733 11.648 22.736C13.9947 22.992 15.712 23.6107 16.8 24.592C17.888 25.552 18.432 26.7253 18.432 28.112C18.432 28.7947 18.2827 29.488 17.984 30.192C17.6853 30.8747 17.1733 31.504 16.448 32.08C15.744 32.656 14.7733 33.1253 13.536 33.488C12.2987 33.8293 10.7307 34 8.832 34H0.704ZM7.136 22.704H8.512C9.94133 22.704 10.9653 22.3733 11.584 21.712C12.224 21.0507 12.544 19.8987 12.544 18.256C12.544 16.5493 12.256 15.3333 11.68 14.608C11.104 13.8827 10.1653 13.52 8.864 13.52H7.136V22.704ZM7.136 33.36H8.736C10.336 33.36 11.52 32.9333 12.288 32.08C13.0773 31.2267 13.472 29.8933 13.472 28.08C13.472 26.3733 13.0987 25.1573 12.352 24.432C11.6053 23.7067 10.3787 23.344 8.672 23.344H7.136V33.36ZM18.765 34V33.68L19.245 33.552C19.6717 33.424 19.9597 33.232 20.109 32.976C20.2797 32.72 20.365 32.3893 20.365 31.984V21.968C20.365 21.4987 20.2797 21.1573 20.109 20.944C19.9597 20.7093 19.6717 20.5493 19.245 20.464L18.765 20.336V20.016L24.269 18.16L24.589 18.48L24.877 21.232V21.488C25.1757 20.8907 25.5597 20.3467 26.029 19.856C26.5197 19.344 27.053 18.928 27.629 18.608C28.2263 18.288 28.813 18.128 29.389 18.128C30.1997 18.128 30.8183 18.352 31.245 18.8C31.6717 19.248 31.885 19.8133 31.885 20.496C31.885 21.2213 31.6717 21.7867 31.245 22.192C30.8397 22.576 30.349 22.768 29.773 22.768C28.877 22.768 28.0877 22.32 27.405 21.424L27.341 21.36C27.1277 21.0613 26.8823 20.9013 26.605 20.88C26.3277 20.8373 26.0717 20.9653 25.837 21.264C25.6237 21.456 25.4423 21.6907 25.293 21.968C25.165 22.224 25.037 22.5227 24.909 22.864V31.792C24.909 32.6453 25.2823 33.1787 26.029 33.392L27.053 33.68V34H18.765ZM35.334 41.68C34.4807 41.68 33.798 41.4667 33.286 41.04C32.7953 40.6133 32.55 40.0693 32.55 39.408C32.55 38.8107 32.7633 38.3307 33.19 37.968C33.6167 37.6053 34.0967 37.424 34.63 37.424C35.1633 37.424 35.6113 37.5307 35.974 37.744C36.3367 37.9787 36.6567 38.3093 36.934 38.736L37.158 38.992C37.6273 39.632 38.0967 39.6213 38.566 38.96C38.758 38.64 38.9713 38.2133 39.206 37.68C39.462 37.168 39.75 36.4747 40.07 35.6L33.862 20.752C33.7127 20.3467 33.5527 20.0267 33.382 19.792C33.2113 19.536 32.934 19.3227 32.55 19.152L31.974 18.928V18.608H39.942V18.896L39.302 19.152C38.8327 19.3013 38.5873 19.5467 38.566 19.888C38.566 20.208 38.6513 20.6133 38.822 21.104L42.15 29.744L45.318 21.008C45.4887 20.5173 45.5527 20.112 45.51 19.792C45.4673 19.4507 45.2007 19.216 44.71 19.088L44.038 18.928V18.608H48.486V18.928L47.782 19.152C47.2913 19.3013 46.95 19.5147 46.758 19.792C46.566 20.0693 46.3847 20.4533 46.214 20.944L41.062 34.992C40.23 37.232 39.398 38.9067 38.566 40.016C37.734 41.1253 36.6567 41.68 35.334 41.68ZM52.4683 34.48C51.2309 34.48 50.1856 34.128 49.3323 33.424C48.5003 32.72 48.0843 31.7067 48.0843 30.384C48.0843 29.3813 48.5963 28.464 49.6203 27.632C50.6443 26.7787 52.2549 26.1387 54.4523 25.712C54.7936 25.648 55.1776 25.584 55.6042 25.52C56.0309 25.4347 56.4789 25.3493 56.9483 25.264V22.736C56.9483 21.2853 56.7669 20.272 56.4043 19.696C56.0629 19.0987 55.5189 18.8 54.7723 18.8C54.2603 18.8 53.8549 18.9707 53.5563 19.312C53.2576 19.632 53.0656 20.1973 52.9803 21.008L52.9163 21.36C52.8736 22.2773 52.6496 22.9493 52.2443 23.376C51.8389 23.8027 51.3376 24.016 50.7403 24.016C50.1856 24.016 49.7269 23.8453 49.3643 23.504C49.0016 23.1627 48.8203 22.704 48.8203 22.128C48.8203 21.2533 49.1189 20.5173 49.7163 19.92C50.3349 19.3227 51.1456 18.8747 52.1483 18.576C53.1509 18.2773 54.2389 18.128 55.4123 18.128C57.3109 18.128 58.7723 18.5973 59.7963 19.536C60.8416 20.4533 61.3643 21.9573 61.3643 24.048V31.12C61.3643 32.08 61.8123 32.56 62.7083 32.56H63.4123L63.7003 32.816C63.2949 33.328 62.8469 33.7227 62.3563 34C61.8869 34.2773 61.2149 34.416 60.3403 34.416C59.4016 34.416 58.6549 34.2027 58.1003 33.776C57.5669 33.328 57.2149 32.7413 57.0443 32.016C56.4043 32.6987 55.7429 33.2853 55.0603 33.776C54.3989 34.2453 53.5349 34.48 52.4683 34.48ZM54.4203 32.528C54.8469 32.528 55.2416 32.432 55.6042 32.24C55.9883 32.0267 56.4363 31.7067 56.9483 31.28V25.904C56.7349 25.9467 56.5216 25.9893 56.3083 26.032C56.0949 26.0747 55.8496 26.1173 55.5723 26.16C54.5909 26.416 53.8016 26.8533 53.2043 27.472C52.6283 28.0693 52.3403 28.88 52.3403 29.904C52.3403 30.7787 52.5429 31.44 52.9483 31.888C53.3536 32.3147 53.8443 32.528 54.4203 32.528ZM63.2963 34V33.68L63.7443 33.552C64.4909 33.3387 64.8643 32.816 64.8643 31.984V21.968C64.8643 21.4987 64.7896 21.1573 64.6403 20.944C64.4909 20.7093 64.2029 20.5493 63.7763 20.464L63.2963 20.336V20.016L68.7683 18.16L69.0883 18.48L69.3443 20.4C70.0909 19.7387 70.9336 19.1947 71.8723 18.768C72.8109 18.3413 73.7389 18.128 74.6563 18.128C76.0643 18.128 77.1416 18.512 77.8883 19.28C78.6563 20.048 79.0403 21.2213 79.0403 22.8V32.016C79.0403 32.848 79.4456 33.3707 80.2563 33.584L80.5443 33.68V34H72.9923V33.68L73.4083 33.552C74.1549 33.3173 74.5283 32.7947 74.5283 31.984V21.776C74.5283 20.4107 73.8456 19.728 72.4803 19.728C71.5416 19.728 70.5176 20.1973 69.4083 21.136V32.016C69.4083 32.848 69.7816 33.3707 70.5283 33.584L70.8163 33.68V34H63.2963ZM86.72 34.48C85.3547 34.48 84.288 34.1387 83.52 33.456C82.7733 32.7733 82.4 31.6853 82.4 30.192V19.248H80.192V18.928L80.96 18.8C81.6213 18.6507 82.1867 18.4373 82.656 18.16C83.1467 17.8827 83.6267 17.5093 84.096 17.04L86.72 14.128H87.04L86.944 18.608H90.528V19.248H86.912V30.768C86.912 31.5147 87.072 32.08 87.392 32.464C87.7333 32.848 88.16 33.04 88.672 33.04C89.12 33.04 89.5147 32.9333 89.856 32.72C90.1973 32.4853 90.5387 32.176 90.88 31.792L91.2 32.112C90.7733 32.8373 90.1867 33.4133 89.44 33.84C88.6933 34.2667 87.7867 34.48 86.72 34.48Z" fill="#19150F"/>
<path d="M25.9211 6.988H27.6431V10.894C27.1391 11.2953 26.5511 11.6033 25.8791 11.818C25.2071 12.0327 24.5164 12.14 23.8071 12.14C22.8084 12.14 21.9077 11.9253 21.1051 11.496C20.3024 11.0573 19.6724 10.4553 19.2151 9.69C18.7577 8.92467 18.5291 8.06133 18.5291 7.1C18.5291 6.13867 18.7577 5.27533 19.2151 4.51C19.6724 3.74467 20.3024 3.14733 21.1051 2.718C21.9171 2.27933 22.8271 2.06 23.8351 2.06C24.6564 2.06 25.4031 2.19533 26.0751 2.466C26.7471 2.73667 27.3117 3.13333 27.7691 3.656L26.6211 4.776C25.8744 4.02933 24.9737 3.656 23.9191 3.656C23.2284 3.656 22.6124 3.80067 22.0711 4.09C21.5391 4.37933 21.1191 4.78533 20.8111 5.308C20.5124 5.83067 20.3631 6.428 20.3631 7.1C20.3631 7.75333 20.5124 8.34133 20.8111 8.864C21.1191 9.38667 21.5391 9.79733 22.0711 10.096C22.6124 10.3947 23.2237 10.544 23.9051 10.544C24.6704 10.544 25.3424 10.376 25.9211 10.04V6.988ZM39.4555 12L37.4535 9.13C37.3695 9.13933 37.2435 9.144 37.0755 9.144H34.8635V12H33.0435V2.2H37.0755C37.9248 2.2 38.6622 2.34 39.2875 2.62C39.9222 2.9 40.4075 3.30133 40.7435 3.824C41.0795 4.34667 41.2475 4.96733 41.2475 5.686C41.2475 6.42333 41.0655 7.058 40.7015 7.59C40.3468 8.122 39.8335 8.51867 39.1615 8.78L41.4155 12H39.4555ZM39.4135 5.686C39.4135 5.06067 39.2082 4.58 38.7975 4.244C38.3868 3.908 37.7848 3.74 36.9915 3.74H34.8635V7.646H36.9915C37.7848 7.646 38.3868 7.478 38.7975 7.142C39.2082 6.79667 39.4135 6.31133 39.4135 5.686ZM52.6397 9.732H47.7397L46.7737 12H44.8977L49.3077 2.2H51.0997L55.5237 12H53.6197L52.6397 9.732ZM52.0377 8.304L50.1897 4.02L48.3557 8.304H52.0377ZM64.1694 12.14C63.18 12.14 62.284 11.9253 61.4814 11.496C60.688 11.0573 60.0627 10.4553 59.6054 9.69C59.1574 8.92467 58.9334 8.06133 58.9334 7.1C58.9334 6.13867 59.162 5.27533 59.6194 4.51C60.0767 3.74467 60.702 3.14733 61.4954 2.718C62.298 2.27933 63.194 2.06 64.1834 2.06C64.986 2.06 65.7187 2.2 66.3814 2.48C67.044 2.76 67.604 3.166 68.0614 3.698L66.8854 4.804C66.176 4.03867 65.3034 3.656 64.2674 3.656C63.5954 3.656 62.9934 3.80533 62.4614 4.104C61.9294 4.39333 61.514 4.79933 61.2154 5.322C60.9167 5.84467 60.7674 6.43733 60.7674 7.1C60.7674 7.76267 60.9167 8.35533 61.2154 8.878C61.514 9.40067 61.9294 9.81133 62.4614 10.11C62.9934 10.3993 63.5954 10.544 64.2674 10.544C65.3034 10.544 66.176 10.1567 66.8854 9.382L68.0614 10.502C67.604 11.034 67.0394 11.44 66.3674 11.72C65.7047 12 64.972 12.14 64.1694 12.14ZM80.1552 10.474V12H72.8052V2.2H79.9592V3.726H74.6252V6.274H79.3572V7.772H74.6252V10.474H80.1552Z" fill="#19150F"/>
</svg>
